<?xml version="1.0" encoding="UTF-8"?>
<svg version="1.1" xmlns="http://www.w3.org/2000/svg" width="152" height="152">
<path d="M0 0 C1.75 0.0625 1.75 0.0625 4 1 C5.57767101 3.23732439 6.73547415 5.55815698 8 8 C8.495 8.495 8.495 8.495 9 9 C10.92139613 8.67256303 10.92139613 8.67256303 13.0625 8.0625 C13.79597656 7.86785156 14.52945313 7.67320313 15.28515625 7.47265625 C15.85105469 7.31667969 16.41695312 7.16070312 17 7 C17 10 17 13 17 16 C18.32 16.33 19.64 16.66 21 17 C20.25 23.75 20.25 23.75 18 26 C18.969375 26.309375 19.93875 26.61875 20.9375 26.9375 C24 28 24 28 25 29 C25.94875 28.814375 26.8975 28.62875 27.875 28.4375 C31 28 31 28 34 30 C31.90824468 35.95345745 31.90824468 35.95345745 29 38 C26.3125 38.1875 26.3125 38.1875 24 38 C23.67 37.01 23.34 36.02 23 35 C21.948125 35.9590625 21.948125 35.9590625 20.875 36.9375 C17.77158767 39.16386102 15.75379861 39.65080943 12 40 C12 40.99 12 41.98 12 43 C12.69738281 42.51273438 13.39476562 42.02546875 14.11328125 41.5234375 C17.41195463 39.78259499 19.48373382 39.59739429 23.1875 39.625 C24.75564453 39.61339844 24.75564453 39.61339844 26.35546875 39.6015625 C27.22816406 39.73304687 28.10085937 39.86453125 29 40 C29.66 40.99 30.32 41.98 31 43 C34.56769552 43.73606499 34.56769552 43.73606499 38 44 C38 45.32 38 46.64 38 48 C36.02253397 48.73080266 34.01927511 49.39421747 32 50 C30 49 30 49 29 46 C28.69707031 46.48210937 28.39414063 46.96421875 28.08203125 47.4609375 C23.73959769 54.00799118 23.73959769 54.00799118 19 55 C17.14375 54.814375 17.14375 54.814375 15.25 54.625 C12.22148018 54.51071623 11.17888543 54.8678067 8.6953125 56.703125 C7.15363473 58.14617692 5.62857335 59.60719668 4.12109375 61.0859375 C1.60356708 63.35773873 -0.68754156 64.32052135 -4 65 C-3.26811258 76.38091554 -3.26811258 76.38091554 2 86 C4.22145298 86.31117629 6.45324268 86.55055514 8.6875 86.75 C15.39751539 87.60513043 18.55918864 88.92478702 23 94 C23 94.66 23 95.32 23 96 C7.31157163 101.3981689 -10.11531685 102.43571604 -26 97 C-27 96 -27 96 -27.28515625 93.640625 C-27 91 -27 91 -25.49609375 89.234375 C-21.01999498 86.0068275 -17.70258009 84.1118153 -12 84 C-10.515 84.495 -10.515 84.495 -9 85 C-9.433125 83.42412109 -9.433125 83.42412109 -9.875 81.81640625 C-14.40998005 64.85618686 -14.40998005 64.85618686 -12 56 C-13.010625 56.0825 -14.02125 56.165 -15.0625 56.25 C-18.76288639 56.01505483 -19.65710011 55.841816 -22.5625 54 C-26.29366836 51.82913841 -27.82756194 51.90929482 -32 52 C-34.875 50.5 -34.875 50.5 -37 49 C-36.75390625 47.109375 -36.75390625 47.109375 -36 45 C-34.15234375 43.953125 -34.15234375 43.953125 -31.9375 43.25 C-31.20402344 43.00765625 -30.47054687 42.7653125 -29.71484375 42.515625 C-29.14894531 42.34546875 -28.58304688 42.1753125 -28 42 C-28.99 40.68 -29.98 39.36 -31 38 C-26.5965498 34.40771168 -24.560389 32.8646104 -18.875 32.9375 C-17.96492188 32.94652344 -17.05484375 32.95554688 -16.1171875 32.96484375 C-15.41851562 32.97644531 -14.71984375 32.98804688 -14 33 C-14.350625 31.948125 -14.70125 30.89625 -15.0625 29.8125 C-15.96189935 26.15494266 -16.00508247 24.51778863 -15 21 C-14.82700729 18.94371377 -14.82700729 18.94371377 -16.0625 17.25 C-17.32612842 14.2172918 -16.71481819 12.14520005 -16 9 C-12.2241456 9.52442422 -9.77627845 10.32654667 -7 13 C-7 13.99 -7 14.98 -7 16 C-6.34 16 -5.68 16 -5 16 C-5 15.34 -5 14.68 -5 14 C-4.34 14 -3.68 14 -3 14 C-3.226875 13.319375 -3.45375 12.63875 -3.6875 11.9375 C-4.17574254 7.34802014 -2.00954081 4.01908163 0 0 Z M6 14 C4.02 14.66 2.04 15.32 0 16 C0.66 17.98 1.32 19.96 2 22 C2.99 21.34 3.98 20.68 5 20 C5 19.34 5 18.68 5 18 C6.32 17.67 7.64 17.34 9 17 C8.34 17 7.68 17 7 17 C6.67 16.01 6.34 15.02 6 14 Z M9 18 C9.33 18.99 9.66 19.98 10 21 C10 20.01 10 19.02 10 18 C9.67 18 9.34 18 9 18 Z M-9 19 C-9 19.66 -9 20.32 -9 21 C-9.99 21.495 -9.99 21.495 -11 22 C-9.68 22.33 -8.36 22.66 -7 23 C-7 21.68 -7 20.36 -7 19 C-7.66 19 -8.32 19 -9 19 Z M-2 26 C-3.35618499 27.12534105 -3.35618499 27.12534105 -3.0625 30.0625 C-3.041875 31.031875 -3.02125 32.00125 -3 33 C-4.32 33.33 -5.64 33.66 -7 34 C-7 34.66 -7 35.32 -7 36 C-8.32 36 -9.64 36 -11 36 C-11.12375 37.258125 -11.2475 38.51625 -11.375 39.8125 C-11.69868059 43.10325263 -12.06604999 44.09907498 -14 47 C-11.525 47.99 -11.525 47.99 -9 49 C-8.44570312 48.0615625 -7.89140625 47.123125 -7.3203125 46.15625 C-6.5889246 44.93727016 -5.85713286 43.71853255 -5.125 42.5 C-4.76019531 41.87996094 -4.39539063 41.25992188 -4.01953125 40.62109375 C-3.0677482 39.04632542 -2.03889741 37.51870947 -1 36 C-0.34 36 0.32 36 1 36 C1.99 37.485 1.99 37.485 3 39 C5.64 38.34 8.28 37.68 11 37 C10.34 36.67 9.68 36.34 9 36 C8.67 35.01 8.34 34.02 8 33 C5.05610218 31.82244087 4.10046087 31.96651304 1 33 C0.67 30.69 0.34 28.38 0 26 C-0.66 26 -1.32 26 -2 26 Z M11 26 C11 26.99 11 27.98 11 29 C12.65 28.67 14.3 28.34 16 28 C13.32357511 25.81509993 13.32357511 25.81509993 11 26 Z M-26 44 C-25.67 45.65 -25.34 47.3 -25 49 C-23.35 48.34 -21.7 47.68 -20 47 C-22.67247634 44.65712582 -22.67247634 44.65712582 -26 44 Z M-1 44 C-1.67467562 45.74692795 -2.33944156 47.49768525 -3 49.25 C-3.37125 50.22453125 -3.7425 51.1990625 -4.125 52.203125 C-5.19905238 55.14783138 -5.19905238 55.14783138 -5 59 C0.99235184 57.61714958 5.72505485 54.33781199 10 50 C11.2032794 46.75382374 11.2032794 46.75382374 11 44 C10.01 44.66 9.02 45.32 8 46 C4.3031699 46.37916206 2.22571464 45.72586006 -1 44 Z " fill="#855826" transform="translate(76,28)"/>
<path d="M0 0 C0.33 0 0.66 0 1 0 C1 3.3 1 6.6 1 10 C1.74765625 9.57847656 2.4953125 9.15695313 3.265625 8.72265625 C4.25046875 8.17480469 5.2353125 7.62695312 6.25 7.0625 C7.22453125 6.51722656 8.1990625 5.97195312 9.203125 5.41015625 C11.53610409 4.23389165 13.45350762 3.47898309 16 3 C15.61932203 5.61929172 15.21295682 6.79191633 13.29296875 8.66796875 C12.59816406 9.16941406 11.90335938 9.67085937 11.1875 10.1875 C10.50042969 10.69667969 9.81335938 11.20585938 9.10546875 11.73046875 C7.03761046 12.97732208 5.35929578 13.55995157 3 14 C3.73188742 25.38091554 3.73188742 25.38091554 9 35 C11.22145298 35.31117629 13.45324268 35.55055514 15.6875 35.75 C22.39751539 36.60513043 25.55918864 37.92478702 30 43 C30 43.66 30 44.32 30 45 C14.31157163 50.3981689 -3.11531685 51.43571604 -19 46 C-20 45 -20 45 -20.1875 42.5625 C-20 40 -20 40 -18 38 C-11.73300887 35.54769912 -5.6592429 35.80317509 1 36 C0.58427734 35.12988281 0.58427734 35.12988281 0.16015625 34.2421875 C-0.20207031 33.46101563 -0.56429687 32.67984375 -0.9375 31.875 C-1.29714844 31.10929687 -1.65679687 30.34359375 -2.02734375 29.5546875 C-4.05914988 24.21813645 -4.13626765 18.9744937 -4.125 13.3125 C-4.12886719 11.35763672 -4.12886719 11.35763672 -4.1328125 9.36328125 C-4 6 -4 6 -3 3 C-2.34 3 -1.68 3 -1 3 C-0.67 2.01 -0.34 1.02 0 0 Z " fill="#EEB604" transform="translate(69,79)"/>
<path d="M0 0 C1.32 0.33 2.64 0.66 4 1 C4 1.99 4 2.98 4 4 C3.01 3.34 2.02 2.68 1 2 C0.67 3.32 0.34 4.64 0 6 C-0.66 6 -1.32 6 -2 6 C-1.67 8.64 -1.34 11.28 -1 14 C-0.01 14 0.98 14 2 14 C2.33 13.34 2.66 12.68 3 12 C3.99 12.99 4.98 13.98 6 15 C3.92446352 15.5534764 2.15634036 16 0 16 C0 18.31 0 20.62 0 23 C-2.31 23.66 -4.62 24.32 -7 25 C-6.505 25.4125 -6.01 25.825 -5.5 26.25 C-4 28 -4 28 -4 32 C-5.32 31.67 -6.64 31.34 -8 31 C-8 31.99 -8 32.98 -8 34 C-9.875 33.6875 -9.875 33.6875 -12 33 C-14.45657845 29.31513232 -14.07631341 27.34986453 -14 23 C-14.40318977 20.64805968 -14.89676929 19.17205118 -16.125 17.125 C-17.34009711 14.17404988 -16.69349619 12.05138325 -16 9 C-12.2241456 9.52442422 -9.77627845 10.32654667 -7 13 C-7 13.99 -7 14.98 -7 16 C-6.34 16 -5.68 16 -5 16 C-5 15.34 -5 14.68 -5 14 C-4.34 14 -3.68 14 -3 14 C-3.226875 13.319375 -3.45375 12.63875 -3.6875 11.9375 C-4.17574254 7.34802014 -2.00954081 4.01908163 0 0 Z M-9 19 C-9 19.66 -9 20.32 -9 21 C-9.99 21.495 -9.99 21.495 -11 22 C-9.68 22.33 -8.36 22.66 -7 23 C-7 21.68 -7 20.36 -7 19 C-7.66 19 -8.32 19 -9 19 Z " fill="#7D5129" transform="translate(76,28)"/>
<path d="M0 0 C1.58167969 0.00193359 1.58167969 0.00193359 3.1953125 0.00390625 C4.52175781 0.21853516 4.52175781 0.21853516 5.875 0.4375 C6.535 1.4275 7.195 2.4175 7.875 3.4375 C11.44269552 4.17356499 11.44269552 4.17356499 14.875 4.4375 C14.875 5.7575 14.875 7.0775 14.875 8.4375 C12.89753397 9.16830266 10.89427511 9.83171747 8.875 10.4375 C6.875 9.4375 6.875 9.4375 5.875 6.4375 C4.885 7.9225 4.885 7.9225 3.875 9.4375 C2.885 9.7675 1.895 10.0975 0.875 10.4375 C0.2253125 11.2109375 0.2253125 11.2109375 -0.4375 12 C-2.91083126 14.10691181 -4.9887368 13.64658421 -8.125 13.4375 C-7.795 12.1175 -7.465 10.7975 -7.125 9.4375 C-8.445 9.4375 -9.765 9.4375 -11.125 9.4375 C-10.79046554 6.42668985 -10.33552508 4.70881048 -8.4609375 2.29296875 C-5.47359903 -0.07991716 -3.77463307 -0.06955712 0 0 Z " fill="#F6BD01" transform="translate(99.125,67.5625)"/>
<path d="M0 0 C3.79039882 0.52644428 6.21815268 1.31750437 9 4 C10 5.875 10 5.875 10 8 C8.0625 10.75 8.0625 10.75 6 13 C6.66 13.66 7.32 14.32 8 15 C7.43181818 20.56818182 7.43181818 20.56818182 6 22 C-0.33005894 21.64833006 -0.33005894 21.64833006 -2.9375 19.125 C-4 17 -4 17 -4 14 C-1.5 12.3125 -1.5 12.3125 1 11 C0.4740625 9.6696875 0.4740625 9.6696875 -0.0625 8.3125 C-1.01755602 4.93796874 -0.97151132 3.30313848 0 0 Z " fill="#774B2B" transform="translate(49,37)"/>
<path d="M0 0 C0.66 0 1.32 0 2 0 C2 0.66 2 1.32 2 2 C2.66 2.33 3.32 2.66 4 3 C3.34 3 2.68 3 2 3 C2 3.99 2 4.98 2 6 C2.66 6.33 3.32 6.66 4 7 C3.34 8.32 2.68 9.64 2 11 C2.99 11 3.98 11 5 11 C4.67 12.32 4.34 13.64 4 15 C5.65 15 7.3 15 9 15 C5.25 17 5.25 17 3 17 C2.71125 17.78375 2.4225 18.5675 2.125 19.375 C1 22 1 22 -1 24 C-4.19151509 24.4199362 -5.58491075 24.26924708 -8.3125 22.5 C-8.869375 22.005 -9.42625 21.51 -10 21 C-10.33 21.66 -10.66 22.32 -11 23 C-10.67 20.36 -10.34 17.72 -10 15 C-10.99 15.495 -10.99 15.495 -12 16 C-11.34 14.68 -10.68 13.36 -10 12 C-7 13 -7 13 -6 15 C-4.02 14.34 -2.04 13.68 0 13 C-1.25541557 10.48916886 -2.50063488 10.12874554 -5 9 C-4.67 8.01 -4.34 7.02 -4 6 C-2.35 6.33 -0.7 6.66 1 7 C0.67 4.69 0.34 2.38 0 0 Z " fill="#784C2B" transform="translate(85,51)"/>
<path d="M0 0 C0.33 0 0.66 0 1 0 C1.95261487 4.76307437 2.08333357 9.1666528 2 14 C2.66 14.33 3.32 14.66 4 15 C3.01 15 2.02 15 1 15 C0.67 12.69 0.34 10.38 0 8 C-0.99 8.495 -0.99 8.495 -2 9 C-2.65772428 12.02934491 -2.65772428 12.02934491 -3 15 C-3.99 15.33 -4.98 15.66 -6 16 C-6.33 16.66 -6.66 17.32 -7 18 C-8.32 18 -9.64 18 -11 18 C-11.33 19.65 -11.66 21.3 -12 23 C-13.32 23 -14.64 23 -16 23 C-16 22.34 -16 21.68 -16 21 C-14.68 21 -13.36 21 -12 21 C-12.33 20.01 -12.66 19.02 -13 18 C-16.01868434 16.49065783 -18.67297229 16.82489328 -22 17 C-22.99 17.66 -23.98 18.32 -25 19 C-25.28056176 21.80561762 -25.26710868 23.46578263 -24 26 C-27.36720387 24.60667426 -28.9859524 23.0210714 -31 20 C-26.5965498 16.40771168 -24.560389 14.8646104 -18.875 14.9375 C-17.96492188 14.94652344 -17.05484375 14.95554687 -16.1171875 14.96484375 C-15.41851562 14.97644531 -14.71984375 14.98804688 -14 15 C-14.33 13.9275 -14.66 12.855 -15 11.75 C-16 8 -16 8 -16 4 C-14.68 4.33 -13.36 4.66 -12 5 C-12.66 5 -13.32 5 -14 5 C-13.77139942 6.46184058 -13.51629608 7.91955419 -13.25 9.375 C-13.11078125 10.18710937 -12.9715625 10.99921875 -12.828125 11.8359375 C-12.18250739 14.17709092 -12.18250739 14.17709092 -9.921875 15.2890625 C-9.28765625 15.52367187 -8.6534375 15.75828125 -8 16 C-8 15.01 -8 14.02 -8 13 C-6.68 13.33 -5.36 13.66 -4 14 C-5.12451727 11.0280615 -6.22293791 8.66559313 -8 6 C-5.36 5.67 -2.72 5.34 0 5 C0 3.35 0 1.7 0 0 Z " fill="#885B25" transform="translate(76,46)"/>
<path d="M0 0 C0.66 0.33 1.32 0.66 2 1 C0.515 3.475 0.515 3.475 -1 6 C6.11322329 7.09636611 13.12346973 7.18354346 20.3125 7.1875 C21.47201172 7.19974609 22.63152344 7.21199219 23.82617188 7.22460938 C30.93857764 7.23660331 38.14745914 7.12151688 45 5 C45.33 4.34 45.66 3.68 46 3 C46.66 4.32 47.32 5.64 48 7 C32.31157163 12.3981689 14.88468315 13.43571604 -1 8 C-2 7 -2 7 -2.1875 4.5625 C-2 2 -2 2 0 0 Z " fill="#A7771B" transform="translate(51,117)"/>
<path d="M0 0 C0.99 0.66 1.98 1.32 3 2 C3 2.99 3 3.98 3 5 C1.68 5 0.36 5 -1 5 C-1 5.66 -1 6.32 -1 7 C-0.01 7.33 0.98 7.66 2 8 C1.01 9.485 1.01 9.485 0 11 C-3.64959542 11.4055106 -6.11067201 11.43326235 -9.4375 9.8125 C-11 8 -11 8 -11.5 5.5 C-11 3 -11 3 -9.4375 1.1875 C-6.12580621 -0.42588928 -3.63896583 -0.33081508 0 0 Z " fill="#F7BE01" transform="translate(61,62)"/>
<path d="M0 0 C0.33 0.66 0.66 1.32 1 2 C0.67 2.99 0.34 3.98 0 5 C-0.48909275 14.58849268 -0.50457808 23.31259941 4 32 C4 32.99 4 33.98 4 35 C3.19175781 35.06058594 2.38351563 35.12117188 1.55078125 35.18359375 C0.48214844 35.26738281 -0.58648437 35.35117188 -1.6875 35.4375 C-2.74324219 35.51871094 -3.79898438 35.59992188 -4.88671875 35.68359375 C-7.65086297 35.96451681 -10.28945741 36.40156852 -13 37 C-10.56979135 33.98654128 -9.28094069 33.06407419 -5.4375 32.1875 C-2 32 -2 32 1 33 C0.71125 31.94941406 0.4225 30.89882812 0.125 29.81640625 C-4.40998005 12.85618686 -4.40998005 12.85618686 -2 4 C-3.093125 4.061875 -4.18625 4.12375 -5.3125 4.1875 C-9 4 -9 4 -10.73046875 2.48828125 C-11.14941406 1.99714844 -11.56835938 1.50601563 -12 1 C-11.07767578 1.01740234 -11.07767578 1.01740234 -10.13671875 1.03515625 C-8.92435547 1.04869141 -8.92435547 1.04869141 -7.6875 1.0625 C-6.88699219 1.07410156 -6.08648437 1.08570312 -5.26171875 1.09765625 C-2.83138666 1.09657855 -2.83138666 1.09657855 0 0 Z " fill="#906223" transform="translate(66,80)"/>
<path d="M0 0 C0.66 0.33 1.32 0.66 2 1 C1.01 1.66 0.02 2.32 -1 3 C-1.72382467 5.05925139 -1.72382467 5.05925139 -2 7 C-0.68 7 0.64 7 2 7 C1.67 8.32 1.34 9.64 1 11 C3.64 10.67 6.28 10.34 9 10 C9.33 9.01 9.66 8.02 10 7 C10.66 7 11.32 7 12 7 C11.02703346 9.65354511 10.34207577 10.79877896 7.875 12.25 C4.13897522 13.22461516 0.86092979 13.06329393 -3 13 C-3.99 13.495 -3.99 13.495 -5 14 C-5 13.34 -5 12.68 -5 12 C-5.74765625 12.42152344 -6.4953125 12.84304687 -7.265625 13.27734375 C-8.25046875 13.82519531 -9.2353125 14.37304688 -10.25 14.9375 C-11.22453125 15.48277344 -12.1990625 16.02804688 -13.203125 16.58984375 C-15.53610409 17.76610835 -17.45350762 18.52101691 -20 19 C-20.16682272 14.07872966 -20.24828052 10.49656104 -18 6 C-16.58312881 10.25061356 -17.80679961 12.71851625 -19 17 C-17.41499412 16.0653305 -15.83206584 15.12713737 -14.25 14.1875 C-13.36828125 13.66542969 -12.4865625 13.14335938 -11.578125 12.60546875 C-6.14094575 9.21958894 -4.46108137 7.04083608 -2 1 C-1.34 0.67 -0.68 0.34 0 0 Z " fill="#855826" transform="translate(90,70)"/>
<path d="M0 0 C1.95766281 -0.08082094 3.91626728 -0.13910778 5.875 -0.1875 C7.51082031 -0.23970703 7.51082031 -0.23970703 9.1796875 -0.29296875 C10.11039063 -0.19628906 11.04109375 -0.09960938 12 0 C12.66 0.99 13.32 1.98 14 3 C17.56769552 3.73606499 17.56769552 3.73606499 21 4 C21 5.32 21 6.64 21 8 C19.02253397 8.73080266 17.01927511 9.39421747 15 10 C13 9 13 9 12 6 C11.01 6.99 10.02 7.98 9 9 C9.33 6.69 9.66 4.38 10 2 C6.37 2 2.74 2 -1 2 C-0.67 1.34 -0.34 0.68 0 0 Z " fill="#8F6123" transform="translate(93,68)"/>
<path d="M0 0 C0.625 2.875 0.625 2.875 1 6 C-1 8 -1 8 -3.8125 8.3125 C-7.36852749 7.96386985 -9.21309325 7.21313183 -12 5 C-12 4.01 -12 3.02 -12 2 C-7.52828892 -0.66173278 -5.06604612 -1.3268216 0 0 Z " fill="#9D6E1E" transform="translate(45,59)"/>
<path d="M0 0 C-0.75 7.75 -0.75 7.75 -3 10 C-5.4375 10.3125 -5.4375 10.3125 -8 10 C-9.8125 8.5 -9.8125 8.5 -11 7 C-10.01468598 3.35433814 -9.31053319 2.19821268 -6.0625 0.125 C-3 -1 -3 -1 0 0 Z " fill="#C79410" transform="translate(110,45)"/>
<path d="M0 0 C2.1875 -0.3125 2.1875 -0.3125 5 0 C7.8125 2.25 7.8125 2.25 10 5 C10 6.32 10 7.64 10 9 C8.68 8.67 7.36 8.34 6 8 C6 8.99 6 9.98 6 11 C4.125 10.6875 4.125 10.6875 2 10 C-0.4294516 6.3558226 -0.16179575 4.28758728 0 0 Z " fill="#EBB404" transform="translate(62,51)"/>
<path d="M0 0 C1.953125 0.6796875 1.953125 0.6796875 4 2 C4.609375 4.3828125 4.609375 4.3828125 4.75 7.125 C4.80671875 8.03507812 4.8634375 8.94515625 4.921875 9.8828125 C4.94765625 10.58148438 4.9734375 11.28015625 5 12 C2.66666667 12 0.33333333 12 -2 12 C-3.35439668 9.29120665 -3.06501451 6.99066732 -3 4 C-2.34 4 -1.68 4 -1 4 C-0.67 2.68 -0.34 1.36 0 0 Z " fill="#F1B903" transform="translate(77,30)"/>
<path d="M0 0 C1.80230168 3.82989106 2.19622241 6.78121808 2 11 C1.01 11.33 0.02 11.66 -1 12 C-1 11.34 -1 10.68 -1 10 C-1.45375 10.495 -1.9075 10.99 -2.375 11.5 C-4 13 -4 13 -6 13 C-6.48929664 5.78287462 -6.48929664 5.78287462 -4.125 2 C-2 0 -2 0 0 0 Z " fill="#E6AF06" transform="translate(84,47)"/>
<path d="M0 0 C1.23556641 0.01740234 1.23556641 0.01740234 2.49609375 0.03515625 C3.32238281 0.04417969 4.14867188 0.05320313 5 0.0625 C5.63808594 0.07410156 6.27617188 0.08570313 6.93359375 0.09765625 C6.1145554 4.35665566 4.22920015 6.27285077 0.93359375 9.09765625 C-0.05640625 9.09765625 -1.04640625 9.09765625 -2.06640625 9.09765625 C-1.73640625 7.77765625 -1.40640625 6.45765625 -1.06640625 5.09765625 C-2.05640625 5.09765625 -3.04640625 5.09765625 -4.06640625 5.09765625 C-2.94676868 0.13926128 -2.94676868 0.13926128 0 0 Z " fill="#F0B803" transform="translate(91.06640625,56.90234375)"/>
<path d="M0 0 C1.47906892 -0.02689216 2.95827483 -0.04634621 4.4375 -0.0625 C5.26121094 -0.07410156 6.08492187 -0.08570313 6.93359375 -0.09765625 C9 0 9 0 10 1 C10.04092937 3.33297433 10.04241723 5.66705225 10 8 C3.52864939 7.51159618 3.52864939 7.51159618 1.0625 5.125 C0 3 0 3 0 0 Z " fill="#A2721C" transform="translate(45,51)"/>
<path d="M0 0 C1.32 0.33 2.64 0.66 4 1 C4 1.99 4 2.98 4 4 C3.01 3.34 2.02 2.68 1 2 C0.67 3.32 0.34 4.64 0 6 C-0.66 6 -1.32 6 -2 6 C-1.67 8.64 -1.34 11.28 -1 14 C-0.01 14 0.98 14 2 14 C2.33 13.34 2.66 12.68 3 12 C3.99 12.99 4.98 13.98 6 15 C3.92446352 15.5534764 2.15634036 16 0 16 C-0.33 16.66 -0.66 17.32 -1 18 C-2.32 17.34 -3.64 16.68 -5 16 C-5 15.34 -5 14.68 -5 14 C-4.34 14 -3.68 14 -3 14 C-3.226875 13.319375 -3.45375 12.63875 -3.6875 11.9375 C-4.17574254 7.34802014 -2.00954081 4.01908163 0 0 Z " fill="#885A25" transform="translate(76,28)"/>
<path d="M0 0 C1.3921875 0.3403125 1.3921875 0.3403125 2.8125 0.6875 C3.1425 2.0075 3.4725 3.3275 3.8125 4.6875 C-0.61826923 7.76442308 -0.61826923 7.76442308 -3.5 7.375 C-4.056875 7.148125 -4.61375 6.92125 -5.1875 6.6875 C-5.875 4.875 -5.875 4.875 -6.1875 2.6875 C-4.40354601 -0.35571562 -3.53300578 -0.34637312 0 0 Z " fill="#7F5229" transform="translate(115.1875,61.3125)"/>
<path d="M0 0 C0.99 0 1.98 0 3 0 C3 0.66 3 1.32 3 2 C0.953125 3.69140625 0.953125 3.69140625 -1.75 5.5625 C-2.63171875 6.18253906 -3.5134375 6.80257812 -4.421875 7.44140625 C-6.72995652 8.83674644 -8.3442305 9.67091552 -11 10 C-11.66 9.67 -12.32 9.34 -13 9 C-13 7.02 -13 5.04 -13 3 C-12.67 4.32 -12.34 5.64 -12 7 C-10.1863523 6.02296079 -8.37411183 5.04330895 -6.5625 4.0625 C-5.55316406 3.51722656 -4.54382813 2.97195312 -3.50390625 2.41015625 C-1.13329507 1.22300532 -1.13329507 1.22300532 0 0 Z " fill="#DAA509" transform="translate(82,82)"/>
<path d="M0 0 C1.60156595 4.00391487 0.4087561 7.07031192 -1 11 C-1.99 11.495 -1.99 11.495 -3 12 C-4.13350534 14.01669827 -4.13350534 14.01669827 -5 16 C-5.33 15.67 -5.66 15.34 -6 15 C-6.66 15.66 -7.32 16.32 -8 17 C-8 15.68 -8 14.36 -8 13 C-7.34 13 -6.68 13 -6 13 C-5.81824219 12.39671875 -5.63648437 11.7934375 -5.44921875 11.171875 C-2.95254833 3.23374341 -2.95254833 3.23374341 0 0 Z " fill="#E2AB07" transform="translate(75,65)"/>
<path d="M0 0 C0.66 0 1.32 0 2 0 C2 0.66 2 1.32 2 2 C2.66 2.33 3.32 2.66 4 3 C3.34 3 2.68 3 2 3 C2 3.99 2 4.98 2 6 C2.66 6.33 3.32 6.66 4 7 C3.34 8.32 2.68 9.64 2 11 C2.99 11 3.98 11 5 11 C4.34 12.32 3.68 13.64 3 15 C3 14.01 3 13.02 3 12 C2.05125 11.9175 1.1025 11.835 0.125 11.75 C-3 11 -3 11 -4.375 8.9375 C-4.58125 8.298125 -4.7875 7.65875 -5 7 C-3 7 -1 7 1 7 C0.67 4.69 0.34 2.38 0 0 Z " fill="#956621" transform="translate(85,51)"/>
<path d="M0 0 C3.5625 0.25 3.5625 0.25 6.5625 2.25 C6.5625 3.24 6.5625 4.23 6.5625 5.25 C5.2425 5.25 3.9225 5.25 2.5625 5.25 C2.5625 5.91 2.5625 6.57 2.5625 7.25 C3.5525 7.58 4.5425 7.91 5.5625 8.25 C4.5725 9.735 4.5725 9.735 3.5625 11.25 C-0.0625 11.4375 -0.0625 11.4375 -3.4375 11.25 C-3.4375 10.92 -3.4375 10.59 -3.4375 10.25 C-1.7875 9.92 -0.1375 9.59 1.5625 9.25 C1.5625 7.6 1.5625 5.95 1.5625 4.25 C2.5525 4.25 3.5425 4.25 4.5625 4.25 C4.5625 3.59 4.5625 2.93 4.5625 2.25 C1.2625 2.25 -2.0375 2.25 -5.4375 2.25 C-3.4375 0.25 -3.4375 0.25 0 0 Z " fill="#D29D0C" transform="translate(57.4375,61.75)"/>
<path d="M0 0 C0.33 0.66 0.66 1.32 1 2 C0.34 2 -0.32 2 -1 2 C-1 2.99 -1 3.98 -1 5 C-0.34 5.33 0.32 5.66 1 6 C-5.625 6.25 -5.625 6.25 -9 4 C-9 3.34 -9 2.68 -9 2 C-5.5647952 -0.29013653 -4.014669 -0.17842973 0 0 Z " fill="#EBB404" transform="translate(62,76)"/>
<path d="M0 0 C0 1.98 0 3.96 0 6 C-6.75 6.125 -6.75 6.125 -9 5 C-9 4.01 -9 3.02 -9 2 C-5.86501708 0.14223235 -3.62528568 -0.20140476 0 0 Z " fill="#B68416" transform="translate(49,73)"/>
<path d="M0 0 C2.31 0 4.62 0 7 0 C6.44225728 3.23490776 5.62788492 4.97855006 3 7 C2.01 7 1.02 7 0 7 C0 6.34 0 5.68 0 5 C-0.66 4.67 -1.32 4.34 -2 4 C-1.34 2.68 -0.68 1.36 0 0 Z " fill="#DDA709" transform="translate(101,58)"/>
<path d="M0 0 C-0.25 2.875 -0.25 2.875 -1 6 C-3.0625 7.375 -3.0625 7.375 -5 8 C-5 7.34 -5 6.68 -5 6 C-5.99 6 -6.98 6 -8 6 C-7.75 4.125 -7.75 4.125 -7 2 C-4.41847698 0.27898465 -3.15081975 0 0 0 Z " fill="#CF9A0D" transform="translate(92,37)"/>
<path d="M0 0 C2.31 0 4.62 0 7 0 C7 0.99 7 1.98 7 3 C6.34 3 5.68 3 5 3 C4.34 4.32 3.68 5.64 3 7 C2.01 7 1.02 7 0 7 C0 6.34 0 5.68 0 5 C-0.66 4.67 -1.32 4.34 -2 4 C-1.34 2.68 -0.68 1.36 0 0 Z " fill="#DDA808" transform="translate(80,67)"/>
<path d="M0 0 C1.423125 0.7115625 1.423125 0.7115625 2.875 1.4375 C6.03456982 2.82745332 8.74979728 3.23378428 12.1875 3.4375 C15.74863935 3.68683396 16.72272125 3.78213813 19.625 6.0625 C20.305625 7.0215625 20.305625 7.0215625 21 8 C20.01 7.67 19.02 7.34 18 7 C15.00397404 6.76953646 12.00921789 6.61948657 9.0078125 6.4765625 C5.65298592 5.94501855 3.69983366 5.04180969 1 3 C0.67 2.01 0.34 1.02 0 0 Z " fill="#9B6C1F" transform="translate(75,112)"/>
<path d="M0 0 C3.69230769 0.69230769 3.69230769 0.69230769 5 2 C5.04063832 3.66617115 5.042721 5.33388095 5 7 C3.02 7.33 1.04 7.66 -1 8 C-1.04241723 5.66705225 -1.04092937 3.33297433 -1 1 C-0.67 0.67 -0.34 0.34 0 0 Z " fill="#CA960F" transform="translate(71,44)"/>
<path d="M0 0 C-0.25 2.875 -0.25 2.875 -1 6 C-3.0625 7.375 -3.0625 7.375 -5 8 C-5 7.34 -5 6.68 -5 6 C-5.66 6 -6.32 6 -7 6 C-6.625 3.5625 -6.625 3.5625 -6 1 C-4 0 -4 0 0 0 Z " fill="#DEA808" transform="translate(95,46)"/>
<path d="M0 0 C4.75 0.75 4.75 0.75 7 3 C7 3.99 7 4.98 7 6 C6.01 6 5.02 6 4 6 C4 6.66 4 7.32 4 8 C2.68 7.34 1.36 6.68 0 6 C0 4.02 0 2.04 0 0 Z " fill="#E2AB07" transform="translate(61,39)"/>
<path d="M0 0 C0 0.66 0 1.32 0 2 C1.65 2 3.3 2 5 2 C5.33 1.34 5.66 0.68 6 0 C6 0.99 6 1.98 6 3 C5.19175781 3.06058594 4.38351563 3.12117188 3.55078125 3.18359375 C1.94783203 3.30927734 1.94783203 3.30927734 0.3125 3.4375 C-0.74324219 3.51871094 -1.79898438 3.59992188 -2.88671875 3.68359375 C-5.65086297 3.96451681 -8.28945741 4.40156852 -11 5 C-7.17906575 1.05170128 -5.52310605 -0.1453449 0 0 Z " fill="#AF7E18" transform="translate(64,112)"/>
<path d="M0 0 C2.31 0.33 4.62 0.66 7 1 C7 2.32 7 3.64 7 5 C4.69 5 2.38 5 0 5 C0 3.35 0 1.7 0 0 Z " fill="#AE7D18" transform="translate(107,71)"/>
<path d="M0 0 C2.375 0.1875 2.375 0.1875 5 1 C6.3125 3.5625 6.3125 3.5625 7 6 C6.01 5.67 5.02 5.34 4 5 C4 5.66 4 6.32 4 7 C3.01 6.67 2.02 6.34 1 6 C0.67 4.02 0.34 2.04 0 0 Z " fill="#E6AF05" transform="translate(49,39)"/>
<path d="M0 0 C3.63 0 7.26 0 11 0 C11.33 0.99 11.66 1.98 12 3 C11.01 4.485 11.01 4.485 10 6 C9.34 6 8.68 6 8 6 C7.34 7.32 6.68 8.64 6 10 C5.01 9.67 4.02 9.34 3 9 C3.804375 8.236875 4.60875 7.47375 5.4375 6.6875 C8.16799024 4.20569102 8.16799024 4.20569102 9 1 C6.03 1 3.06 1 0 1 C0 0.67 0 0.34 0 0 Z " fill="#976720" transform="translate(89,56)"/>
<path d="M0 0 C0.66 0.33 1.32 0.66 2 1 C1.67 1.99 1.34 2.98 1 4 C1.66 4 2.32 4 3 4 C3 4.99 3 5.98 3 7 C4.65 5.68 6.3 4.36 8 3 C7.125 6.875 7.125 6.875 6 8 C3.625 8.25 3.625 8.25 1 8 C-0.8125 6.5 -0.8125 6.5 -2 5 C-1.34 3.35 -0.68 1.7 0 0 Z " fill="#8C5E24" transform="translate(101,47)"/>
<path d="M0 0 C1 1 1 1 1.0625 4.0625 C1.041875 5.031875 1.02125 6.00125 1 7 C0.34 6.01 -0.32 5.02 -1 4 C-0.67 3.34 -0.34 2.68 0 2 C-1.48117801 2.28127421 -2.95993249 2.57533732 -4.4375 2.875 C-5.26121094 3.03742188 -6.08492187 3.19984375 -6.93359375 3.3671875 C-7.61550781 3.57601562 -8.29742187 3.78484375 -9 4 C-9.33 4.66 -9.66 5.32 -10 6 C-9.75 4.125 -9.75 4.125 -9 2 C-6.06286462 -0.09795384 -3.54783261 -0.2876621 0 0 Z " fill="#926422" transform="translate(49,71)"/>
<path d="M0 0 C0.66 0.99 1.32 1.98 2 3 C4.05925139 3.72382467 4.05925139 3.72382467 6 4 C5.01 4.33 4.02 4.66 3 5 C3.33 5.99 3.66 6.98 4 8 C3.46375 7.835 2.9275 7.67 2.375 7.5 C-0.45886009 6.90339788 -3.1119806 6.9343632 -6 7 C-6 6.67 -6 6.34 -6 6 C-4.35 5.67 -2.7 5.34 -1 5 C-0.67 3.35 -0.34 1.7 0 0 Z " fill="#7B4F2A" transform="translate(50,73)"/>
<path d="M0 0 C1.98 0 3.96 0 6 0 C6 1.65 6 3.3 6 5 C4.35 5 2.7 5 1 5 C0.67 3.35 0.34 1.7 0 0 Z " fill="#EBB304" transform="translate(48,52)"/>
<path d="M0 0 C0.66 0.33 1.32 0.66 2 1 C2 2.32 2 3.64 2 5 C1.34 5 0.68 5 0 5 C0 5.66 0 6.32 0 7 C-1.65 7 -3.3 7 -5 7 C-5.33 5.35 -5.66 3.7 -6 2 C-4.68 2.99 -3.36 3.98 -2 5 C-2 4.34 -2 3.68 -2 3 C-1.34 2.67 -0.68 2.34 0 2 C0 1.34 0 0.68 0 0 Z " fill="#A5751B" transform="translate(55,41)"/>
<path d="M0 0 C0.66 0 1.32 0 2 0 C0.98059612 2.7801924 0.30279713 3.82814217 -2.3125 5.3125 C-5.2923726 6.07479299 -7.0709637 5.83686751 -10 5 C-9.67 4.34 -9.34 3.68 -9 3 C-6.36 3 -3.72 3 -1 3 C-0.67 2.01 -0.34 1.02 0 0 Z " fill="#9C6D1E" transform="translate(100,77)"/>
<path d="M0 0 C1.98 0.99 1.98 0.99 4 2 C3.67 2.66 3.34 3.32 3 4 C6.12197478 2.6910428 6.12197478 2.6910428 8 0 C8.66 0 9.32 0 10 0 C8.125 3.875 8.125 3.875 7 5 C4.5625 5.1875 4.5625 5.1875 2 5 C1.34 4.34 0.68 3.68 0 3 C0 2.01 0 1.02 0 0 Z " fill="#875A25" transform="translate(77,70)"/>
<path d="M0 0 C0.598125 0.20625 1.19625 0.4125 1.8125 0.625 C1.8125 1.945 1.8125 3.265 1.8125 4.625 C-2.9375 3.875 -2.9375 3.875 -5.1875 1.625 C-2.1875 -0.375 -2.1875 -0.375 0 0 Z " fill="#F2BA02" transform="translate(46.1875,73.375)"/>
<path d="M0 0 C0 0.99 0 1.98 0 3 C0.66 3.33 1.32 3.66 2 4 C-0.31 4 -2.62 4 -5 4 C-5.33 3.01 -5.66 2.02 -6 1 C-3 0 -3 0 0 0 Z " fill="#EAB304" transform="translate(41,61)"/>
<path d="M0 0 C0.33 1.32 0.66 2.64 1 4 C2.65 4.33 4.3 4.66 6 5 C5.67 5.66 5.34 6.32 5 7 C2.9375 7.625 2.9375 7.625 1 8 C-0.35439668 5.29120665 -0.06501451 2.99066732 0 0 Z " fill="#D29D0C" transform="translate(74,34)"/>
<path d="M0 0 C1.98 0 3.96 0 6 0 C5.34 1.32 4.68 2.64 4 4 C2.68 4 1.36 4 0 4 C0 2.68 0 1.36 0 0 Z " fill="#D29E0C" transform="translate(111,63)"/>
<path d="M0 0 C1.60080151 4.00200378 0.29279692 7.04556236 -1 11 C-1.33 11 -1.66 11 -2 11 C-3.35384615 4.6 -3.35384615 4.6 -1.5625 1.5625 C-1.046875 1.046875 -0.53125 0.53125 0 0 Z " fill="#B28017" transform="translate(75,65)"/>
<path d="M0 0 C0.66 0.33 1.32 0.66 2 1 C2 2.32 2 3.64 2 5 C0.68 4.67 -0.64 4.34 -2 4 C-2 4.99 -2 5.98 -2 7 C-2.99 6.67 -3.98 6.34 -5 6 C-4.34 6 -3.68 6 -3 6 C-3 4.68 -3 3.36 -3 2 C-2.01 2 -1.02 2 0 2 C0 1.34 0 0.68 0 0 Z " fill="#CE9A0D" transform="translate(70,55)"/>
<path d="M0 0 C0.99 0 1.98 0 3 0 C2.67 1.98 2.34 3.96 2 6 C1.34 6 0.68 6 0 6 C0 5.34 0 4.68 0 4 C-0.66 3.67 -1.32 3.34 -2 3 C-1.34 2.01 -0.68 1.02 0 0 Z " fill="#EEB603" transform="translate(89,37)"/>
<path d="M0 0 C0.33 0.66 0.66 1.32 1 2 C0.67 2.66 0.34 3.32 0 4 C1.65 3.67 3.3 3.34 5 3 C4.67 4.65 4.34 6.3 4 8 C3.34 7.67 2.68 7.34 2 7 C2.33 6.34 2.66 5.68 3 5 C1.68 5 0.36 5 -1 5 C-0.67 3.35 -0.34 1.7 0 0 Z " fill="#C69210" transform="translate(89,72)"/>
<path d="M0 0 C0.33 0.66 0.66 1.32 1 2 C2.32 2 3.64 2 5 2 C5 2.99 5 3.98 5 5 C5.66 5.33 6.32 5.66 7 6 C5.35 6.33 3.7 6.66 2 7 C2.33 5.68 2.66 4.36 3 3 C2.01 3 1.02 3 0 3 C0 2.01 0 1.02 0 0 Z " fill="#D8A30A" transform="translate(87,59)"/>
<path d="M0 0 C1.98 0.99 1.98 0.99 4 2 C4 2.99 4 3.98 4 5 C2.68 5.33 1.36 5.66 0 6 C0 4.02 0 2.04 0 0 Z " fill="#F7BE01" transform="translate(71,45)"/>
<path d="M0 0 C0.66 0 1.32 0 2 0 C2.66 2.31 3.32 4.62 4 7 C2.0625 6.25 2.0625 6.25 0 5 C-0.8125 2.9375 -0.8125 2.9375 -1 1 C-0.67 0.67 -0.34 0.34 0 0 Z " fill="#B68316" transform="translate(48,65)"/>
</svg>
